# xmcd
#
# Track frame offsets: 
#        300
#        39298
#        73658
#        91836
#        129615
#        154429
#        183073
#
# Disc length: 2765 seconds
#
# Revision: 0
# Processed by: cddbd v1.5.2PL0 Copyright (c) Steve Scherf et al.
# Submitted via: ExactAudioCopy v1.0b1
#
DISCID=560ac907
DTITLE=Robert Cray Band - Live From Across The Pond [disc1]
DYEAR=2006
DGENRE=Contemporary Blues
TTITLE0=I Was Warned
TTITLE1=Twenty
TTITLE2=Bad Influence
TTITLE3=The One In The Middle
TTITLE4=Back Door Slam
TTITLE5=Time Makes Two
TTITLE6=I'm Walkin
EXTD=
EXTT0=
EXTT1=
EXTT2=
EXTT3=
EXTT4=
EXTT5=
EXTT6=
PLAYORDER=
